<svg xmlns="http://www.w3.org/2000/svg" id="office-computer-table" viewBox="0 0 350 350">
  <rect width="176.12" height="1" x="105.85" y="188.48" transform="rotate(-29.67 193.905 188.974)" fill="#401c1c"></rect>
  <path d="M269.54,230.94l-149.2-84.53Z"></path>
  <rect width="1" height="171.48" x="194.44" y="102.94" transform="rotate(-60.47 194.923 188.668)" fill="#401c1c"></rect>
  <path d="M119.39,143.24l-2,92.13Z"></path>
  <rect width="92.16" height="2" x="72.29" y="188.31" transform="rotate(-88.74 118.364 189.307)" fill="#401c1c"></rect>
  <path d="M151.47,176.07l-2,92.14Z"></path>
  <rect width="92.16" height="2" x="104.37" y="221.14" transform="rotate(-88.74 150.453 222.138)" fill="#401c1c"></rect>
  <path d="M270.49,142l-2.05,92.13Z"></path>
  <rect width="92.16" height="2" x="223.39" y="187.06" transform="rotate(-88.74 269.465 188.065)" fill="#401c1c"></rect>
  <path d="M304.39,172.6l-2.05,92.14Z"></path>
  <rect width="92.16" height="2" x="257.28" y="217.67" transform="rotate(-88.74 303.37 218.672)" fill="#401c1c"></rect>
  <polygon points="141.94 179.55 316.83 175.45 316.8 171.13 141.96 174.74 141.94 179.55" fill="#b69c8f"></polygon>
  <path d="M316.86,171.32c-3.46.07-46.92-34.47-46.92-34.47H112.14L142,174.93Z" fill="#fae8da"></path>
  <polygon points="141.94 174.74 141.94 179.55 112.09 141.04 112.09 136.66 141.94 174.74" fill="#b69c8f"></polygon>
  <path d="M178.24,157.91H246a7.51,7.51,0,0,0-.12-1.79c-1.57-5.26-7.12-9-10.43-10.27l-63.72.59Z" fill="#b69c8f"></path>
  <path d="M246,156.82v1.09l-67.95,1-6.32-10.86v-1.62c2.49,2.28,5.81,8.67,6.51,11.47Z" fill="#401c1c"></path>
  <polygon points="208.41 155.37 235.15 154.82 233.76 153.04 207.51 153.54 208.41 155.37" fill="#e5d1ca"></polygon>
  <path d="M238.77 151.22a8.33 8.33 0 0 0-4.45-3.9l-49.63.37a12.73 12.73 0 0 1 3.16 4.19ZM183.92 147.74a13 13 0 0 1 2.84 4.18l-8.21.29c-.2-1.4-1.26-2.86-2.45-4.34Z" fill="#e5d1ca"></path>
  <path d="M229.75 151.53a8.32 8.32 0 0 0-4-4.37h-.54a8.44 8.44 0 0 1 4 4.25ZM221.54 151.79a8.34 8.34 0 0 0-4-4.38H217a8.4 8.4 0 0 1 4 4.25Z" fill="#b69c8f"></path>
  <rect width="8.43" height=".38" x="219.26" y="148.49" transform="rotate(-180 223.48 148.675)" fill="#b69c8f"></rect>
  <polygon points="196.91 155.66 206.61 155.5 205.78 153.57 196.36 153.57 196.91 155.66" fill="#e5d1ca"></polygon>
  <path d="M216.77,136.71s7.72,8.29,7.27,8.11-38.52.55-38.52.55l-5.35-8.66Z" fill="#401c1c"></path>
  <path d="M194.08,139.86h14.79c-2.65-4.33-3.5-11.68,0-17H194.08C191.06,129.2,191.75,135.82,194.08,139.86Z" fill="#b69c8f"></path>
  <polygon points="165.83 124.94 236.27 124.94 230.06 78.11 161.78 78.11 165.83 124.94" fill="#401c1c"></polygon>
  <polygon points="167.51 117.09 232.9 117.09 228.34 80.69 164.15 80.69 167.51 117.09" fill="#b69c8f"></polygon>
  <ellipse cx="201.28" cy="121.49" rx="2.26" ry="1.4" fill="#b69c8f"></ellipse>
  <polygon points="161.05 142.64 170.66 142.64 169.58 128.84 160.29 128.94 161.05 142.64" fill="#e5d1ca"></polygon>
  <path d="M169.58,128.84s-3.12-1.42-3.26-1.51-8,.27-8,.27l.76,14,2,1L160.29,129Z" fill="#b69c8f"></path>
  <ellipse cx="165.26" cy="134.12" rx="2.77" ry="2.46" fill="#b69c8f"></ellipse>
  <polygon points="233.85 142.64 243.46 142.64 242.38 128.84 233.08 128.94 233.85 142.64" fill="#e5d1ca"></polygon>
  <path d="M242.38,128.84s-3.13-1.42-3.26-1.51-8.05.27-8.05.27l.76,14,2,1L233.08,129Z" fill="#b69c8f"></path>
  <ellipse cx="238.05" cy="134.12" rx="2.77" ry="2.46" fill="#b69c8f"></ellipse>
  <polygon points="230.34 275.43 228.26 274.81 239.93 199.97 242.02 200.59 230.34 275.43" fill="#985846"></polygon>
  <path d="M183,218.18c.77,5.63,1.55,5.17,5.4,9.93s14.13,11.58,28.52,11.58c15.55,0,35.08-1.22,39.84-5.08,2.63-2.14,4.28-3.84,4.57-6.5C261.4,227.33,183,218.18,183,218.18Z" fill="#985846"></path>
  <path d="M258.63,224.27c-6.39-5.82-14.64-10.08-21.53-11.51-14.31-3-55.66-1-54.12,5.42s17.31,16.09,26.47,17.87C219.3,238,274.09,238.35,258.63,224.27Z" fill="#dfab9c"></path>
  <rect width="2.4" height="98.2" x="205.69" y="186.48" fill="#985846"></rect>
  <polygon points="263.8 281.87 261.39 282.06 256.48 184.04 258.88 183.85 263.8 281.87" fill="#985846"></polygon>
  <path d="M262.45,173.2c1.21,11.22,1.4,20-8.08,21.22-10.41,1.33-50.28,2.81-52-2.28-2.29-6.82-2.84-22,4-23.37C217.79,166.51,261.49,164.31,262.45,173.2Z" fill="#dfab9c"></path>
  <polygon points="178.22 273.31 176.13 272.69 187.8 197.85 189.88 198.47 178.22 273.31" fill="#985846"></polygon>
  <path d="M205.25 203c.9 1.86.44 6.49.44 6.49l-20.8-6.79s-1-6.27 4.27-6.53C193.75 196 202.84 198.09 205.25 203ZM257.47 203.82c.9 1.86.44 6.49.44 6.49l-20.8-6.8s-1-6.27 4.27-6.53C246 196.76 255.06 198.87 257.47 203.82Z" fill="#985846"></path>
  <path d="M134.3,112.2a.79.79,0,0,1,.5-.11h0c-.21,0,0-.07.16-.14l.63-.3c.34-.15.68-.32,1-.48.7-.35,1.38-.72,2.05-1.09q2-1.14,3.83-2.41a39.91,39.91,0,0,0,3.4-2.65q.8-.69,1.53-1.41a8.22,8.22,0,0,1,1.54-1.37c.22-.13.56,0,.49.15a4.68,4.68,0,0,1-1.21,1.57q-.82.84-1.74,1.65a40,40,0,0,1-3.88,3,48.32,48.32,0,0,1-4.49,2.74c-.76.4-1.53.79-2.31,1.16-.61.29-1.35.58-1.71.1C134,112.49,134.13,112.32,134.3,112.2Z" fill="#401c1c"></path>
  <polygon points="127.69 113.71 134.65 113.65 134.58 101.37 127.62 101.43 127.69 113.71" fill="#401c1c"></polygon>
  <polygon points="33.53 113.55 40.48 113.5 40.41 101.22 33.45 100.5 33.53 113.55" fill="#401c1c"></polygon>
  <polygon points="49.45 105.11 150.38 104.3 150.36 99.57 49.51 100.37 49.45 105.11" fill="#985846"></polygon>
  <path d="M150.36,99.57c-2,0-18.3-4.34-18.3-4.34L33.14,96l16.37,4.34Z" fill="#d7935a"></path>
  <polygon points="49.45 105.11 33.17 100.62 33.15 96.03 49.51 100.37 49.45 105.11" fill="#985846"></polygon>
  <path d="M35.62,113a31,31,0,0,0,8.07-3.35,19.92,19.92,0,0,0,3.13-2.41A15.57,15.57,0,0,0,48,106c.29-.34.6-.89,1.24-1a.18.18,0,0,1,.15,0c.33.38-.12.9-.4,1.25a14.5,14.5,0,0,1-1.29,1.46,19.67,19.67,0,0,1-3.16,2.55,21.17,21.17,0,0,1-7.7,3.26C35.91,113.71,34.76,113.22,35.62,113Z" fill="#401c1c"></path>
  <rect width="31.53" height="31.05" x="94.47" y="65.56" transform="rotate(-180 110.24 81.08)" fill="#fae8da"></rect>
  <path d="M126.37,97.12H94.08V65.32h32.29Zm-31.54-.75h30.79V66.07H94.83Z" fill="#985846"></path>
  <path d="M125,96.39s-1.26-13.58-5.36-15.89-3.27,11.91-8,10.71-5-6-9.58-3.35-6.67,8.53-6.67,8.53Z" fill="#c0541d"></path>
  <path d="M116.68,65.84s2.35,14.23-5.43,13.21-6.11-13.21-6.11-13.21Z" fill="#dfab9c"></path>
  <ellipse cx="105.97" cy="77.31" rx="4.27" ry="4.16" fill="#d7935a"></ellipse>
  <path d="M83.49,83s-2.58,10.62-5.3,13.25-13.37,3-16,.13S56.8,86,56.27,82.24C55.89,79.65,85,78.86,83.49,83Z" fill="#fae8da"></path>
  <ellipse cx="69.9" cy="82.24" rx="12.05" ry="1.09" fill="#985846"></ellipse>
  <path d="M58,85.7A3.4,3.4,0,0,0,61,87c1-.12,1.88-.73,2.88-.92,1.91-.36,3.35,1.38,5.23,1.48,2.12.11,3.53-1.57,5.55-1.73,2.22-.17,5.85,1.93,7.13-.8.12-.26.5,0,.39.21-.94,2-3.32,1.7-5.14,1.31a7.08,7.08,0,0,0-2.55-.25,5.65,5.65,0,0,0-2,.78,6.5,6.5,0,0,1-3,.92,5.88,5.88,0,0,1-2.84-.75,5.35,5.35,0,0,0-2-.8,4.4,4.4,0,0,0-1.91.49c-1.85.73-3.74.68-5-1C57.49,85.79,57.81,85.48,58,85.7Z" fill="#c0541d"></path>
  <path d="M72.58 117.21ZM51.72 92.13ZM53.2 86.72a.67.67 0 0 1-.06-.12s0 0 0 0S53.17 86.67 53.2 86.72ZM53.16 86.64s0 0 0 0ZM53.82 87.94a.37.37 0 0 0 0-.11l-.06-.15ZM83.89 109.58v0ZM86.3 109.23h0l-.1-.07ZM86.24 109.21h0l.08.06h0ZM83.89 109.55h0v0ZM82.07 117.41l-.08-.17-.06-.15ZM86.92 109.69l-.15-.11-.18-.14ZM72.17 106.27l-.12.1-.15.11ZM70.31 108.16l0 .1c0 .07-.07.13-.1.21ZM86.76 99.1a.28.28 0 0 0 .13 0s.1.07.15.08ZM84.86 87h0a2.73 2.73 0 0 0-.2.25ZM87.92 78.64h0C87.81 78.6 87.64 78.52 87.92 78.64ZM87.94 78.65h0C88 78.68 88.05 78.69 87.94 78.65ZM88.63 80.12a1.41 1.41 0 0 0 0-.28s0 0 0-.06ZM81.11 75.28a.11.11 0 0 0 0 0 1.59 1.59 0 0 0 0-.29C81.08 75.05 81.1 75.17 81.11 75.28ZM78 75.11l0 .06-.16.2ZM68.17 99.36l0 0S68.1 99.38 68.17 99.36ZM68.17 99.36h0ZM71 91.3c0 .13 0 .06 0 0ZM71 91.26s0 0 0 0v0ZM71 91.3v0h0ZM67.21 90.59s0 0-.06 0l-.19.14Z" fill="#6c7b4a"></path>
  <path d="M47.42,105.91a1.6,1.6,0,0,0-.57,1.2,1.32,1.32,0,0,0,1.3,1.26,1.57,1.57,0,0,0,1.31-.67,3.68,3.68,0,0,0,.66-1.07,2,2,0,0,0,.05-.26c0,1.08,0,2.15,0,3.22-.08.2-.11.4-.19.6a3.39,3.39,0,0,0-.22.83,9.29,9.29,0,0,1-.25,1.38c-.07.24-.16.48-.25.72a2,2,0,0,1-.12.31.61.61,0,0,1,0,.12.37.37,0,0,1,0,.09,4.5,4.5,0,0,0-.51,1.86,1.19,1.19,0,0,0,2,.81,5,5,0,0,0,.87-3.71,10.51,10.51,0,0,0-.17-1.77,1.81,1.81,0,0,0-.23-.51,25.66,25.66,0,0,0,.21-4.3c.06.17.13.33.2.49.27.6.49,1.4,1.13,1.71a1.3,1.3,0,0,0,1.86-.74c.24-.68-.21-1.39-.47-2a4.37,4.37,0,0,0-1.09-1.63c-.11-.13-.21-.27-.33-.39a4,4,0,0,0-.32-.26c.16.13,0,0-.08-.11s-.28-.23-.42-.34-.26-.26-.41-.37a.22.22,0,0,0-.24,0c-.06-.85-.12-1.7-.16-2.53-.06-1.06-.09-2.13-.11-3.2v0a4,4,0,0,0,.6.81,2.17,2.17,0,0,0,1.48.65,1.47,1.47,0,0,0,1.37-.9,1.44,1.44,0,0,0-.31-1.6l-.28-.22h0c.11.08.15.11.06,0l-.09-.08c-.09-.16-.19-.32-.29-.47-.25-.4-.5-.79-.72-1.2l-.35-.64a1.18,1.18,0,0,0-.11-.19s0,0,0,0a1,1,0,0,0-.26-.45c.15.27.16.26,0,0l-.19-.24L51.63,92s0,0,0-.07l-.07-.09a1.14,1.14,0,0,0-.1-.19,1.31,1.31,0,0,0-.19-.27.31.31,0,0,0-.26-.11,26.06,26.06,0,0,1,.54-3.18,2.76,2.76,0,0,0,.19.55,3,3,0,0,0,.43.68,1.22,1.22,0,0,0,1.22.42A1,1,0,0,0,54,88.42a3.07,3.07,0,0,0-.25-.59,4.94,4.94,0,0,0-.69-1.28l.06,0a1,1,0,0,0-.13-.23l0,0a.58.58,0,0,0,0-.11.83.83,0,0,0-.11-.15.76.76,0,0,0-.09-.18l-.06,0a.72.72,0,0,0-.39-.32,19.13,19.13,0,0,1,1.06-2.47l.08-.06.13-.1a1.52,1.52,0,0,0,.33-.34,2.09,2.09,0,0,0,.34-.56l-.12.28a.57.57,0,0,1,.08-.13,1.54,1.54,0,0,0,.08-.19v0s.06-.09.07-.11a2.56,2.56,0,0,0,.11-.24l0,.11a1.33,1.33,0,0,0,.13-.28.56.56,0,0,0,0-.07l.06-.15a.53.53,0,0,0,0-.13l0-.07s0,0,0,0c1.77-2.46,4.76-4.94,8-4.91,2.9,0,4.37,2.46,5.51,4.78a3.88,3.88,0,0,0,.47,2.37.34.34,0,0,0,.62-.16v-.48c.15-.2.11-.41.14-.71a.86.86,0,0,1,.23-.75.68.68,0,0,1,.85.43A2.94,2.94,0,0,1,70.69,83c0,1.6-.77,3.23-1.19,4.75,0,.1,0,.2-.07.3a.37.37,0,0,0-.18,0,1,1,0,0,0-.2.25.59.59,0,0,0-.06.14l0,.07a1.46,1.46,0,0,0-.14.31c0-.06,0,0,0,0a1.6,1.6,0,0,0-.1.23.84.84,0,0,0,0,.12l0-.09a2.29,2.29,0,0,0-.1.23,2.2,2.2,0,0,0,0,.36h0s0,0,0,.07a.91.91,0,0,0-.17.09l0,0a.35.35,0,0,0-.13.05l-.16.12-.06,0a.53.53,0,0,0-.17.08l-.21.17a.83.83,0,0,0-.16.09l0,0,0,0,0,0-.08.07-.16.11a5.67,5.67,0,0,0-.74.64,1.62,1.62,0,0,0-.65,1.58,1.16,1.16,0,0,0,1,.82,1.56,1.56,0,0,0,.9-.19A2.46,2.46,0,0,0,68.3,93a.08.08,0,0,1,0,0,22.1,22.1,0,0,0-.26,2.28,2.53,2.53,0,0,0-.36.69c0,.08,0,.16-.08.24a.69.69,0,0,0,0,.13l0,.05q0-.08,0,0l-.07.11-.11.21a2.63,2.63,0,0,0-.31,1.37,2.41,2.41,0,0,0,.12.65,1.11,1.11,0,0,0,.12.3,1.15,1.15,0,0,0,.21.23.61.61,0,0,0,.68.09.9.9,0,0,0,.3-.17c.06-.06.11-.13.16-.19a2.21,2.21,0,0,0,.22-.29,2.05,2.05,0,0,0,.18-.43,2.21,2.21,0,0,0,0-1.37,2.5,2.5,0,0,0-.07-.26l0-.06c-.09-.21-.11-.25,0-.13L68.86,96a1.76,1.76,0,0,0-.43-.9s-.06,0-.09,0c.12-.89.28-1.77.45-2.65l0-.06a2.89,2.89,0,0,0,.22-.43,2.27,2.27,0,0,0,.48.45,1.21,1.21,0,0,0,.87.2c.48-.07.59-.65.62-1a1.86,1.86,0,0,0,0-.33,4,4,0,0,0-.09-.5c-.07-.23-.13-.44-.21-.66a3.09,3.09,0,0,0-.14-.32c0-.06-.12-.24,0,0a2.29,2.29,0,0,0-.19-.35,1.54,1.54,0,0,0-.15-.35c0-.06,0-.11-.08-.16l-.06-.1s0,0,0,0a1.19,1.19,0,0,0-.08-.2l0,0c-.11-.14-.12-.15,0,0s0-.12-.09-.22c.38-1.23.78-2.45,1.15-3.69s.82-3.44-.75-4c.27-2,1.15-3.92,3.61-3.82a3.19,3.19,0,0,1,2.66,1.61,5.46,5.46,0,0,0-4.27,4.74c0,.43.69.52.76.1a5.13,5.13,0,0,1,3.93-3.94A7.19,7.19,0,0,1,77.29,81a52,52,0,0,1-.9,12c-.17,1.07-.39,2.12-.59,3.19a.41.41,0,0,0-.15.07l-.06,0c.12,0,.14,0,.06,0a2.27,2.27,0,0,0-.48.27h0l-.12.05-.25.19s0,0,0,0a2.37,2.37,0,0,0-.3.23l-.21.18.26-.19a6.39,6.39,0,0,0-1.29,1.2,5.91,5.91,0,0,0-.62.8,1.33,1.33,0,0,0-.21.89,1.13,1.13,0,0,0,.15.47.8.8,0,0,0,.4.35,1.37,1.37,0,0,0,1.23,0,3.69,3.69,0,0,0,.81-.54c-.34,1.61-.7,3.23-1.08,4.83h0a1.1,1.1,0,0,0-.26.18c-.06.06-.15.11-.24.19l-.07.06-.07,0-.2.15h0l-.11.06-.21.16-.12.06c-.19.13-.37.27-.55.41a6.88,6.88,0,0,0-.91.79c-.13.13-.24.27-.36.41l-.2.21a1.91,1.91,0,0,0-.3.48,2.38,2.38,0,0,0-.18.51,1.09,1.09,0,0,0,1.05,1.35,2,2,0,0,0,1.15-.26l.62-.47c-.43,1.89-.86,3.79-1.26,5.7a3.54,3.54,0,0,0-.86.68l-.22.19s-.18.12-.19.17l-.11.07-.2.14c-.31.21-.66.34-1,.54a5,5,0,0,0-.62.49l-.2.16a1.51,1.51,0,0,0-.37.62l.11-.25a1.47,1.47,0,0,0-.23.76.94.94,0,0,0,.24.58,1.27,1.27,0,0,0,.41.23,1.54,1.54,0,0,0,.48,0,1.68,1.68,0,0,0,.75-.17l.26-.17a3.21,3.21,0,0,0,.87-.77,3.39,3.39,0,0,0,.23-.34A40.64,40.64,0,0,0,70,127.73h0a.22.22,0,0,0-.09.07s0,0,0,0,0,0,0,0a.34.34,0,0,0-.15.14l-.07.09,0,0a1.59,1.59,0,0,0-.28.36c-.12.17-.23.34-.35.5a2.19,2.19,0,0,0-.3.59c-.11.23-.22.46-.32.7l.13-.31c-.07.18-.16.35-.24.53a1.42,1.42,0,0,0,.07,1.52,1.19,1.19,0,0,0,1.35.39,1.7,1.7,0,0,0,1-.88,6.57,6.57,0,0,0,.59-1.26,3.24,3.24,0,0,0,.07-1.35,1.46,1.46,0,0,0-.16-.62c.16.31-.08-.24-.07-.22s0,0,0,0a.75.75,0,0,0-.18-.3l-.06,0c-.06-.08-.13-.17-.2-.28.4-2.19.61-4.4,1-6.6.27-1.51.57-3,.88-4.54,0,.08,0,.15,0,.23l0,.31a2.54,2.54,0,0,1,0,.29v0c0,.05,0,.17,0,.19s0,.2,0,.3a3.22,3.22,0,0,0,.16.82,4.24,4.24,0,0,0,.38.77,1.25,1.25,0,0,0,1.12.75,1.09,1.09,0,0,0,1-1.51l0-.07c0,.07,0,.08,0,0l-.06-.15L75,118a3.37,3.37,0,0,0-.44-.84l0-.06c0,.06,0,.06,0,0a.64.64,0,0,0-.1-.13l-.19-.26a7.24,7.24,0,0,1-.57-1.15,2.21,2.21,0,0,0-.36-.54l-.14-.11c.06.06,0,0,0,0s-.14-.15-.2-.23a.09.09,0,0,0-.15,0c.12-.53.22-1.06.34-1.59.54-2.34,1.12-4.69,1.69-7a5.42,5.42,0,0,0,.19.72,4.69,4.69,0,0,0,.34.8,2.69,2.69,0,0,0,.31.44c.13.12.06,0,0,0a1,1,0,0,0,.7.43,1.11,1.11,0,0,0,.89-.3,1.31,1.31,0,0,0,.41-1.07,7.58,7.58,0,0,0-.3-1.7c0-.13-.09-.26-.14-.39a2.39,2.39,0,0,0-.15-.37l-.1-.12a1.2,1.2,0,0,0-.06-.18l-.1-.14,0,.08a1.11,1.11,0,0,0-.12-.27l-.13-.18s0,0,0-.05a1.28,1.28,0,0,0-.11-.2c0-.07-.07-.18-.11-.27a.42.42,0,0,0-.09-.14c-.06-.07-.06-.08,0,0a.85.85,0,0,1-.06-.17,1.39,1.39,0,0,0-.18-.31.32.32,0,0,0-.33-.12,101.22,101.22,0,0,0,2.9-17.35,18.55,18.55,0,0,0-.32-6.08,5.58,5.58,0,0,1,.71,0l.41.08c2.25,3.33,2.45,8.07,2.63,11.82.21,4.42.51,8.83,1.06,13.22-1.1,4.15-2.34,8.26-3.57,12.38l0,.1-.85,2.86c-.12.41-.23.83-.35,1.24a.46.46,0,0,0-.2,0c-.16,0,.09,0,0,0a1.81,1.81,0,0,0-.31.09c.13,0-.06,0-.09,0l-.18.08a2.17,2.17,0,0,0-.61.43c-.14.15-.29.29-.43.43l-.23.21s0,0,0,0l0,0A9,9,0,0,0,75,123c-.48.51-1.1,1-1.07,1.75a1.41,1.41,0,0,0,1.4,1.37,2.3,2.3,0,0,0,1.71-1c.07-.08.12-.16.18-.24-.43,1.6-.85,3.21-1.24,4.82a.66.66,0,0,0-.48.05,11.1,11.1,0,0,0-1.79,1.64,6.7,6.7,0,0,0-.81.59,4.22,4.22,0,0,0-.49.61l-.13.17a1.91,1.91,0,0,0-.26.87,1.41,1.41,0,0,0,.74,1.25,1.57,1.57,0,0,0,1.5,0,2,2,0,0,0,.73-.73c-.17.87-.36,1.74-.51,2.61s-.22,1.51-.33,2.26a3.16,3.16,0,0,0-.62.53c-.21.25-.35.55-.57.79a18,18,0,0,1-1.27,1.35,5.81,5.81,0,0,0-1.28,1.68c-.39.78-.92,1.73-.23,2.49a1,1,0,0,0,.92.24,1.28,1.28,0,0,0,.65-.39.77.77,0,0,0,.23-.36l0-.06.08-.17c.14-.28.29-.55.45-.82a13.55,13.55,0,0,0,.87-1.8l0-.05,0,0,.12-.23c.07-.12.14-.25.2-.38-.12,1.16-.24,2.32-.31,3.48a36.41,36.41,0,0,0,.09,5.23c-.09.53-.17,1.06-.25,1.59a7.23,7.23,0,0,0-.09,2.32,4.09,4.09,0,0,0,1.12,2.25,1.41,1.41,0,0,0,1.48.27,1.31,1.31,0,0,0,.83-1.21,11.15,11.15,0,0,0-1.46-3.93,10.92,10.92,0,0,1-.53-1.68c-.12-.45-.16-1-.33-1.43.06-1.41.14-2.81.26-4.21v.05c0,.17,0,.19,0,.06l0,.27a8.51,8.51,0,0,0,.17,1.11,3.66,3.66,0,0,0,.5,1,2.53,2.53,0,0,0,1.28,1,1.46,1.46,0,0,0,1.53-.51,1.41,1.41,0,0,0,.11-1.57c-.13-.24-.29-.46-.42-.7h0v0c-.09-.23-.2-.43-.3-.64-.32-.63-.42-1-.77-1.69s-.61-1.18-.89-1.77c-.14-.29-.23-.6-.38-.88a1.49,1.49,0,0,0-.36-.45c.34-2.56.77-5.11,1.34-7.64.75-3.36,1.65-6.69,2.61-10a40,40,0,0,0-.3,5.92,34.11,34.11,0,0,0,.79,7.28,1,1,0,0,1,0,.1,1.43,1.43,0,0,0-.08.22s-.06.08-.08.13,0,.07,0,.11l.09-.21a1.2,1.2,0,0,0-.16.64l0-.26a1.33,1.33,0,0,0,0,.74l0-.28a1.71,1.71,0,0,0,.2.7.76.76,0,0,0,.12.19l.23.3a.79.79,0,0,0,.2.17c0,.2,0,.39,0,.59,0,.58.15,1.15.25,1.73a9.41,9.41,0,0,0,.38,1.67c.12.31.26.6.4.89a2.64,2.64,0,0,0,.55.91,1.16,1.16,0,0,0,1.94-.78,2.15,2.15,0,0,0-.21-.79c-.06-.12-.06-.13,0,0l-.09-.2c-.12-.3-.23-.61-.37-.9-.23-.5-.53-1-.8-1.44s-.41-.79-.61-1.19a1.91,1.91,0,0,0,.53-.16l-.22.09.37-.14a.84.84,0,0,0,0-1.46l-.09,0,0,0-.12-.08c-.12-.11-.24-.23-.35-.35l.19.23c-.11-.13-.2-.25-.32-.37a.8.8,0,0,1-.15-.17l.18.23a2.88,2.88,0,0,0-.22-.27,2.78,2.78,0,0,0-.27-.21l.23.18L81,135.6a1,1,0,0,0-.27-.19.88.88,0,0,0-.15-.12l0,0,0,0a.55.55,0,0,0-.17-.14.48.48,0,0,0-.09-.11,1,1,0,0,0-.21-.35.33.33,0,0,0-.16,0,47.23,47.23,0,0,1-.47-5.81,2.53,2.53,0,0,0,.12.23,1.54,1.54,0,0,0,.94.74,1.19,1.19,0,0,0,1-.19,1.09,1.09,0,0,0,.45-.87,1.37,1.37,0,0,0-.35-.86c.22.29,0,0,0,0s-.18-.33-.29-.48a6.1,6.1,0,0,1-.64-1l-.07-.15c0,.09,0,.08,0,0s-.08-.21-.13-.31l-.25-.63a1.47,1.47,0,0,0-.56-.74c.06-.69.13-1.39.23-2.08.14-.89.32-1.76.47-2.64a1.68,1.68,0,0,0,1,.45,1,1,0,0,0,1.12-.68,1.8,1.8,0,0,0-.07-1.27c-.13-.32-.24-.65-.38-1l-.12-.26a.78.78,0,0,1-.05-.14,1.75,1.75,0,0,0-.11-.24s0-.13,0-.15a1.4,1.4,0,0,0-.1-.16,1,1,0,0,0,0-.16,1.45,1.45,0,0,0-.09-.22s0-.08,0-.1a.52.52,0,0,0-.06-.13,1,1,0,0,0,0-.17,1,1,0,0,0-.08-.26.38.38,0,0,0-.16-.17c.82-2.74,1.64-5.49,2.41-8.24.12.88.28,1.75.42,2.63a.13.13,0,0,0,0,.06v0h0l0,0a2.51,2.51,0,0,0,0,.27,2.17,2.17,0,0,1,0-.25,1.16,1.16,0,0,0-.07.37,1,1,0,0,0,0,.17,2.5,2.5,0,0,0,.07.54,1.66,1.66,0,0,0,.19.48s.06.09.09.15c0-.12-.1-.24-.16-.36a1.59,1.59,0,0,0,.18.4c.34,1.93.72,3.86,1.18,5.76a1.62,1.62,0,0,0-.34.55,5.86,5.86,0,0,0-.26.57l-.12.29-.06.14c-.08.16-.16.32-.25.48a3.54,3.54,0,0,0-.34.77,2.52,2.52,0,0,0-.26,1.52,1,1,0,0,0,1.48.59,2.67,2.67,0,0,0,1-1.49,1.38,1.38,0,0,0,.06-.26h0A24.17,24.17,0,0,0,89.37,127c0,.11.09.23.14.33a5.61,5.61,0,0,1,.3,1s0,.08,0,.12a.87.87,0,0,0,.05.22,1.19,1.19,0,0,0,.1.28,1.28,1.28,0,0,0,.21.48l-.11-.25h0a2.45,2.45,0,0,0,.62,1,2.59,2.59,0,0,0,.75.52,4.93,4.93,0,0,0,.9.35,2.28,2.28,0,0,0,.82.07,2.7,2.7,0,0,0,.73-.23,1.4,1.4,0,0,0,.29-2.21,2.28,2.28,0,0,0-.85-.5l-.12,0c-.18-.1-.36-.21-.54-.29a4.89,4.89,0,0,0-.77-.3,1.42,1.42,0,0,0-.36-.14,1.84,1.84,0,0,0-.25-.09,1.45,1.45,0,0,0-.29-.11l0,0a1.89,1.89,0,0,1-.25-.11,5.05,5.05,0,0,1-.51-.28,9.3,9.3,0,0,0-.91-.57,28.88,28.88,0,0,1-2-4.8,4,4,0,0,0,.65.46c.2.1.42.18.62.26a1.35,1.35,0,0,0,.65.15,1.23,1.23,0,0,0,1.1-.72,1.17,1.17,0,0,0-.25-1.29,2.4,2.4,0,0,0-.84-.47c-.23-.1-.46-.18-.69-.26a3.77,3.77,0,0,1-.7-.41l.22.16a6.15,6.15,0,0,0-.62-.42l-.38-.2-.08-.06h0l-.1-.08a.42.42,0,0,0-.14-.09l-.12-.08a1.27,1.27,0,0,0-.18-.06h0c-.33-1.32-.63-2.65-.88-4-.13-.66-.24-1.32-.35-2a1.19,1.19,0,0,0,.15.09,2.56,2.56,0,0,0,.75.3l.22,0a3,3,0,0,0,.43,0,2.33,2.33,0,0,0,.43-.06,1.31,1.31,0,0,0,.8-1.92,4.61,4.61,0,0,0-1.19-1.18c-.14-.1-.28-.21-.43-.3l.13.1-.14-.11a1.84,1.84,0,0,0-.4-.19l.31.13a1.21,1.21,0,0,0-.14-.1l-.16-.07-.22-.1-.12,0-.12-.06s-.11,0-.16,0l-.18-.07s0,0-.06,0a.73.73,0,0,0-.24-.07l-.06,0a1,1,0,0,0-.17-.11h-.06c-.18-1.23-.37-2.47-.52-3.71q.9-3.39,1.63-6.81a2.48,2.48,0,0,0,.4.55,2.28,2.28,0,0,0,.83.57,1.33,1.33,0,0,0,1,.09.8.8,0,0,0,.52-.45,1.18,1.18,0,0,0,.16-.58.88.88,0,0,0,0-.16,1.71,1.71,0,0,0,0-.31l0-.17c0-.1,0-.2,0-.29a5.43,5.43,0,0,0-.18-.61c-.07-.21-.09-.42-.15-.63s-.12-.31-.18-.45a1.69,1.69,0,0,0-.13-.27.94.94,0,0,0-.18-.21s0,0,0,0a1.28,1.28,0,0,0-.26-.26,1.44,1.44,0,0,0-.62-.27.16.16,0,0,0-.1,0,.67.67,0,0,0-.24,0c0-.12,0-.23.07-.34a30.49,30.49,0,0,0,.45-4.44l.11.17a3.58,3.58,0,0,0,.61.68,1.47,1.47,0,0,0,.6.33c-.3-.07,0,0,.11.08a.85.85,0,0,0,1.23-.49,3.85,3.85,0,0,0,.07-.49c0,.15,0,.16,0,0l0-.31a3.06,3.06,0,0,0-.13-.9,7.4,7.4,0,0,0-.34-.89l0,.06,0-.06h0l0,0,0-.09L89,87.6a7.09,7.09,0,0,0-.44-.87,1.93,1.93,0,0,0-.28-.36l.1.13a2.33,2.33,0,0,0-.27-.35c-.1-.09-.1-.08,0,0a2.37,2.37,0,0,0-.49-.51c-.1-.06-.09-.05,0,0a1.71,1.71,0,0,0-.26-.21l-.09-.1a.85.85,0,0,0-.22-.13,1.57,1.57,0,0,0-.57-.36.32.32,0,0,0-.14,0,10.35,10.35,0,0,0-1.53-3.28,3.12,3.12,0,0,0,.43.15,3,3,0,0,0,3.16-1.27,1.35,1.35,0,0,0,.21-.66,2.08,2.08,0,0,0,0-.35.84.84,0,0,0-.16-.48.79.79,0,0,0-.28-.21h0l-.06,0a1,1,0,0,0-.2-.11l-.1,0a1.25,1.25,0,0,0-.31-.07,1.91,1.91,0,0,0-1.16.06l-1,.41.37-.15a4.38,4.38,0,0,0-1,.52,3.48,3.48,0,0,0-.65.62c-.1.13,0-.06.05-.06s-.07.07-.08.08-.06,0,0,0,0,0,0,0-.06,0,0,0a1.53,1.53,0,0,0-.51.12,8.8,8.8,0,0,0-1.14-.92,6.93,6.93,0,0,0-2.68-1,10.66,10.66,0,0,0-.76-.88,2.44,2.44,0,0,0,.94-.25,2.12,2.12,0,0,0,.62-.44,4,4,0,0,0,.33-.42A1.36,1.36,0,0,0,81,75.8s0-.07,0-.11a1.05,1.05,0,0,0,0-.46,1.93,1.93,0,0,0-.09-.49,1.89,1.89,0,0,0-.09-.21.92.92,0,0,0-.16-.27l0-.05a.43.43,0,0,0-.09-.13L80.57,74a.34.34,0,0,0-.53-.06h0l0,0h0a.94.94,0,0,0-.32,0h0l-.19,0,.17,0h0a1.58,1.58,0,0,0-.61.21l.33-.14a2.33,2.33,0,0,0-.9.55l.3-.23c-.19.15-.37.29-.54.45a2.51,2.51,0,0,0-.25.32,1.91,1.91,0,0,0-.25.33,2.52,2.52,0,0,0-.15.34h0l.09-.21a2.15,2.15,0,0,0-.14.26l-.08,0-.13.06h0a6.29,6.29,0,0,0-8.15,2.12A6.39,6.39,0,0,0,68.26,80c-1-2.27-2.64-4.33-5.32-4.56-3.31-.3-6.51,2-8.5,4.37-.21.25-.37.53-.57.79h-.49l-.26,0,.31,0a4.16,4.16,0,0,0-.6,0,1.55,1.55,0,0,0-.31,0,1.81,1.81,0,0,0-.49,0l-.25,0-.46.12-.45.13a2,2,0,0,0-.54.21,3.54,3.54,0,0,0-.44.32,1.33,1.33,0,0,0-.36,1.35,1.42,1.42,0,0,0,1,1,2.4,2.4,0,0,0,1.16,0,1.94,1.94,0,0,0,.33-.07,23.6,23.6,0,0,0-1.49,4.46A27.09,27.09,0,0,0,50,91.21l-.25.1c-.11,0,.06,0,0,0l-.15.06-.26.1h0c-.06,0-.45.15-.45.21s.21-.08.06,0a3.88,3.88,0,0,0-.36.15,4.46,4.46,0,0,0-.74.48,3,3,0,0,0-1,1.34,1.7,1.7,0,0,0,.07,1.23.51.51,0,0,0,0,.13.78.78,0,0,0,.24.33.22.22,0,0,0,.23.06,1,1,0,0,0,.29-.11l0,0,.08,0H47.7l.16,0,.27-.11c-.29.12-.06,0,0,0a1.92,1.92,0,0,0,.37-.15,3,3,0,0,0,.94-.74,3.91,3.91,0,0,0,.36-.47c-.07,1.82,0,3.65,0,5.48L50,101.6h0c-.67.86-.91,1.94-1.52,2.83l-.2.31c-.06.09-.22.3-.06.09-.11.14-.23.29-.33.44l0,0s.06-.07,0,0h0a4,4,0,0,0-.34.47ZM80.51,79.47a8.75,8.75,0,0,1,4.66,5.09,11.6,11.6,0,0,1,.48,1.75l-.1.06,0,0a.83.83,0,0,0-.21.16s0,0,0,0c.21-.07-.13.1-.2.17a.85.85,0,0,0-.14.19l-.12.13a3.51,3.51,0,0,0-.77,1.71,5.41,5.41,0,0,1-.12.58c-.06.26-.08.51-.12.77l.05-.3a4.29,4.29,0,0,0-.07.5,1,1,0,0,0,1,1,1.86,1.86,0,0,0,1-.34c-.07.89-.18,1.77-.32,2.63-.47,2.87-1.13,5.7-1.84,8.52-.15-1.44-.29-2.89-.4-4.33-.39-4.92-.1-10.06-1.42-14.86A15.86,15.86,0,0,0,80.51,79.47Z" fill="#6c7b4a"></path>
  <path d="M47.82 105.33h0a.18.18 0 0 0 0 .07l.06-.09h0ZM64.06 127l.07.15s0 .09.05.14ZM58.5 104.68l-.07 0a2.48 2.48 0 0 1-.26.19ZM63.94 104.53l-.25-.1-.1-.05ZM60.29 97.56s0 0 0 0 .08.2.13.3Z" fill="#6c7b4a"></path>
  <path d="M58.28,90.65l-.21.2a2,2,0,0,1-.45.31,1.82,1.82,0,0,1-.85.22,1.45,1.45,0,0,1-1.43-1.82,2.24,2.24,0,0,1,.54-.85,5.06,5.06,0,0,1,.58-.42,3.55,3.55,0,0,0-.31.23c.2-.15.39-.32.6-.45a4.17,4.17,0,0,1,.65-.29h0l-.31.13.17-.11c.08,0,.15,0,.22-.08l.09,0a1.67,1.67,0,0,1,.2-.08l.16-.1a1.17,1.17,0,0,1,.2-.06l.17-.12a9.18,9.18,0,0,1,1.53-4.62c1.7-2.34,6.07-3.24,7.64-.27a.43.43,0,0,1-.74.43,3.27,3.27,0,0,0-3.92-.95,5,5,0,0,0-3,4,21,21,0,0,0-.17,5.54c0,.94.12,1.87.2,2.81a.3.3,0,0,1,.31.05,4.48,4.48,0,0,1,.36.4c.11.11.24.21.35.33a1.67,1.67,0,0,1,.28.18.59.59,0,0,1,.14.06l.25.19h0c-.07-.06-.07-.06,0,0a.94.94,0,0,1,.29.2h0a2,2,0,0,1,.24.16,2.75,2.75,0,0,1,.56.35l-.29-.21A4,4,0,0,1,64.15,98a1.29,1.29,0,0,1-1.26,1.62,2.09,2.09,0,0,1-1.07-.28,3.21,3.21,0,0,1-.62-.48,3.43,3.43,0,0,1-.9-1.27,2.18,2.18,0,0,1-.09-.23.08.08,0,0,1,0,0l0,.34c.21,1.73.46,3.45.71,5.17,0,0,.06,0,.09.05a3.36,3.36,0,0,1,.24.29l.15.12s.12.15,0,.06c.07.07.16.12.23.18l.07.06.08,0,.16.12a1,1,0,0,1,.16.06h0l.09,0,.18.08-.06,0,.33.14.22.1.29.1a3.85,3.85,0,0,1,.47.19,11.57,11.57,0,0,1,1.14.5,4,4,0,0,1,.69.47,1.67,1.67,0,0,1,.57,1.21,1.25,1.25,0,0,1-.3.83,1.33,1.33,0,0,1-.22.2l.11-.06-.28.21-.27.11-.07,0,0,0L65,108a1.64,1.64,0,0,1-.93,0,5.22,5.22,0,0,1-.86-.41,7.12,7.12,0,0,1-.78-.53c-.17-.14-.36-.26-.51-.41s-.26-.31-.4-.46l0,0c0,.11,0,.21,0,.32.23,1.43.45,2.86.67,4.29a.2.2,0,0,1,.08,0c.36.38.61.88.94,1.23.13.14.23.29.35.43-.06-.07,0,0,0,0a1.22,1.22,0,0,1,.15.17l0,.07s.05.05.07.06l.26.31,0,.07h0a2.74,2.74,0,0,1,.45.45l.51.45.12.09.13.09a4.17,4.17,0,0,0,.54.31,2.51,2.51,0,0,1,.82.44,1.46,1.46,0,0,1-.66,2.44,3.14,3.14,0,0,1-2.69-.84,3.72,3.72,0,0,1-.48-.57c.25,2,.48,3.91.63,5.88q.06.65.09,1.32a.25.25,0,0,1,.24,0,2.77,2.77,0,0,1,.48.34l.22.16c.08.08-.07,0,0,0s.13.11.2.15h0c-.06-.05,0,0,.06,0A.9.9,0,0,1,65,124c0,.05,0,.05,0,0l.18.15-.12-.08.22.17a1.94,1.94,0,0,1,.21.27l.18.26a5.09,5.09,0,0,1,.62,1.26,2.42,2.42,0,0,1,.2.79,1.37,1.37,0,0,1-.29.79,1.13,1.13,0,0,1-.84.42,1.19,1.19,0,0,1-.81-.29,1.48,1.48,0,0,1-.45-.66c-.14-.31-.26-.63-.37-.94a29.63,29.63,0,0,1-.92,8.71,1.55,1.55,0,0,1,.07.31l0,.17c0,.1,0,.12,0,0,0,.48.06,1,.1,1.44a3.53,3.53,0,0,1-.11,1.48,1.76,1.76,0,0,1-.81,1.09,1.29,1.29,0,0,1-1.54-.13,1.69,1.69,0,0,1-.42-.92,2.17,2.17,0,0,1,.15-1,5.53,5.53,0,0,1,.62-1.27c.21-.34.38-.71.59-1.05a6.82,6.82,0,0,1,.82-1,.15.15,0,0,1,.16,0c.11-3.49.25-7,.1-10.44a0,0,0,0,1,0,0,16.78,16.78,0,0,1-.57,1.69,3.48,3.48,0,0,1-1.48,2,1.21,1.21,0,0,1-1.79-1,3.46,3.46,0,0,1,.78-2c.33-.51.67-1,1-1.53s.67-1,1-1.49a12.08,12.08,0,0,1,.8-1c-.32-3.22-.79-6.43-1.33-9.63-.12.63-.24,1.26-.41,1.88,0,.1.06.22.07.24s.09.23.12.35a3.69,3.69,0,0,1,.06.88,10.49,10.49,0,0,1-.34,1.91,5.33,5.33,0,0,1-.79,1.83c-.47.67-1,1.52-1.88,1.68a1.3,1.3,0,0,1-1.62-1.21,2.05,2.05,0,0,1,.44-1.23c.18-.22.34-.46.5-.7a9.9,9.9,0,0,1,.69-.88h0l.09-.12.42-.53a.64.64,0,0,0,.1-.13l0,0,.24-.33.47-.71a9.7,9.7,0,0,1,.77-.94c0-.06,0-.13,0-.19a22.23,22.23,0,0,0,.54-2.55c.06-.41.07-.83.11-1.25,0-.27-.09-.53-.14-.8s-.06-.4-.1-.6a4,4,0,0,1-.61.69,1.7,1.7,0,0,1-1.15.47,1.65,1.65,0,0,1-1.15-.47,1.58,1.58,0,0,1-.47-1.12,1.69,1.69,0,0,1,.47-1.12l.35-.39c-.09.1-.17.21-.26.32a6.54,6.54,0,0,1,.41-.51,3.71,3.71,0,0,1,.42-.35,2.52,2.52,0,0,1,.33-.24l-.29.22a2.4,2.4,0,0,1,.26-.18c.05,0,.09-.09.15-.13a1.06,1.06,0,0,1,.17-.1.91.91,0,0,1,.16-.11.94.94,0,0,1,.18-.12l.09-.08,0,0,.13-.13a.75.75,0,0,1,.09-.15.3.3,0,0,1,.08-.08q-.47-2.89-.83-5.79a2.43,2.43,0,0,1-.36.5c-.12.15-.24.31-.37.45a1.72,1.72,0,0,1-.84.5,1.18,1.18,0,0,1-1-.2,1.06,1.06,0,0,1-.45-.88,1.68,1.68,0,0,1,.23-.75,2.43,2.43,0,0,1,.33-.46l-.19.25.37-.51a2.56,2.56,0,0,1,.77-.8,1.72,1.72,0,0,1,.4-.26l.19-.1a1.53,1.53,0,0,1,.27-.17l.11-.13a1.37,1.37,0,0,1,.2-.13h0c0-.22-.06-.44-.08-.67C58.5,93.27,58.36,92,58.28,90.65Z" fill="#6c7b4a"></path>
  <rect width="6.09" height="8.57" x="71.46" y="253.67" fill="#401c1c"></rect>
  <rect width="6.09" height="8.57" x="118.04" y="253.67" fill="#401c1c"></rect>
  <rect width="6.09" height="8.57" x="54.18" y="234.95" fill="#401c1c"></rect>
  <polygon points="130.35 256.05 66.73 256.05 66.73 195.08 130.35 194.63 130.35 256.05" fill="#8a98b5"></polygon>
  <path d="M130.35,194.63,108,175l-55.47,2.31v55.6s14.21,25,14.21,23.17v-61Z" fill="#6d758e"></path>
  <path d="M128.66 209.65H69.05V198.27h59.61ZM69.8 208.9h58.11V199H69.8ZM128.66 223.28H69.05V211.9h59.61Zm-58.86-.75h58.11v-9.88H69.8ZM128.66 236.17H69.05V224.8h59.61Zm-58.86-.75h58.11v-9.87H69.8ZM128.34 251H68.74V239.58h59.6Zm-58.85-.75h58.1v-9.87H69.49Z" fill="#6d758e"></path>
  <path d="M101.7,203.38c-.39-.07-.75-.16-1.14-.2a8.16,8.16,0,0,0-1.21,0c-.81,0-1.61.05-2.41.15a.36.36,0,0,0,0,.71c.8.05,1.61,0,2.41,0a7,7,0,0,0,1.21-.13,4.89,4.89,0,0,0,.53-.09c.21-.05.4-.13.61-.18S101.81,203.4,101.7,203.38Z" fill="#8a98b5"></path>
  <path d="M102.4 203.89a20 20 0 0 0-2 .16 21 21 0 0 0-2.08.36c-.53.12-1.46.27-1.73.8a.2.2 0 0 0 0 .25 1.11 1.11 0 0 0 .8.28c.36 0 .73 0 1.09.06l2 0 2 0a4 4 0 0 0 1.14 0c.42-.12.91-.54.85-1C104.39 203.78 103.19 203.87 102.4 203.89ZM103.65 216.79a20.19 20.19 0 0 0-2.05.15c-.7.09-1.39.21-2.08.36-.52.12-1.46.28-1.73.8a.23.23 0 0 0 0 .26 1.07 1.07 0 0 0 .8.27 9.77 9.77 0 0 0 1.08.06l2 0 2 0a4 4 0 0 0 1.15 0c.42-.12.9-.53.84-1C105.64 216.67 104.44 216.77 103.65 216.79ZM103.65 229.49a17.67 17.67 0 0 0-2.05.15 21 21 0 0 0-2.08.36c-.52.12-1.46.27-1.73.8a.23.23 0 0 0 0 .26 1.07 1.07 0 0 0 .8.27 9.77 9.77 0 0 0 1.08.06l2 0 2 0a4 4 0 0 0 1.15 0c.42-.12.9-.54.84-1C105.64 229.37 104.44 229.47 103.65 229.49ZM102.4 244.26a20 20 0 0 0-2 .16 21 21 0 0 0-2.08.36c-.53.12-1.46.27-1.73.8a.2.2 0 0 0 0 .25 1.11 1.11 0 0 0 .8.28c.36 0 .73 0 1.09.06l2 0 2 0a4 4 0 0 0 1.14 0c.42-.12.91-.54.85-1C104.39 244.15 103.19 244.24 102.4 244.26Z" fill="#6d758e"></path>
  <path d="M77.38,188.19c4.66-1.48,16,1.58,24.13.4s11-.94,7.21-3-16.23-8.57-17.36-11.05-4.06,1.58-10.93,1.35S60.27,177.09,64.54,178,73.55,189.41,77.38,188.19Z" fill="#fae8da"></path>
  <path d="M79.29,183.62c4.76-1.12,15.84,2.82,24,2.29s11.09-.09,7.43-2.41-15.52-9.81-16.45-12.37-4.17,1.26-11,.49-20.19-.41-16,.81S75.38,184.54,79.29,183.62Z" fill="#fae8da"></path>
</svg>
